# xmcd CD database file
# Copyright (C) 1993-1998 Ti Kan
#
# Track frame offsets:
#	183
#	12800
#	26185
#	40183
#	53830
#	68003
#	80738
#	93525
#	108878
#	123463
#	136598
#	151750
#	162898
#	176658
#	189438
#	202185
#	215820
#	228888
#	241753
#	275035
#
# Disc length: 3847 seconds
#
# Revision: 1
# Processed by: cddbd v1.4b41PL1 Copyright (c) Steve Scherf et al.
# Submitted via: CDValet v3.31 - Copyright (c) 1997 Greg Leichner
#
DISCID=100f0514
DTITLE=Muddy Waters - Rollin' Stone 20 Blues Classics
DYEAR=1900
DGENRE=
TTITLE0=Whiskey Blues (Sittin' Here And Drinkin')
TTITLE1=Rollin' and Tumblin'
TTITLE2=Rollin' Stone
TTITLE3=Sad Letter Blues
TTITLE4=Early Morning Blues (Before Daybreak)
TTITLE5=Hello Little Girl (Appealing Blues)
TTITLE6=Louisiana Blues
TTITLE7=Honey Bee
TTITLE8=Still A Fool
TTITLE9=She Moves Me
TTITLE10=They Call Me Muddy Waters
TTITLE11=She's Allright
TTITLE12=I Want You To Love Me (Mad Love)
TTITLE13=(I'm Your) Hoochie-Coochie Man
TTITLE14=I Just Want To Make Love To You (Just Make Love To Me)
TTITLE15=I'm Ready
TTITLE16=Mannish Boy
TTITLE17=40 Days and 40 Nights
TTITLE18=I've Got My Mojo Workin' (LIVE)
TTITLE19=Baby Please Don`t Go (LIVE)
EXTD=
EXTT0=
EXTT1=
EXTT2=
EXTT3=
EXTT4=
EXTT5=
EXTT6=
EXTT7=
EXTT8=
EXTT9=
EXTT10=
EXTT11=
EXTT12=
EXTT13=
EXTT14=
EXTT15=
EXTT16=
EXTT17=
EXTT18=
EXTT19=
PLAYORDER=
